Coordinates
nRows=230
nColumns=2
inDegrees=yes
endheader
time	ankle_angle_r	
6.81956	 -4.319652	
6.85282	 -4.313883	
6.88609	 -4.310594	
6.91935	 -4.308796	
6.95262	 -4.311373	
6.98589	 -4.319409	
7.01915	 -4.325543	
7.05242	 -4.326702	
7.08569	 -4.325882	
7.11895	 -4.321784	
7.15222	 -4.315761	
7.18548	 -4.312941	
7.21875	 -4.311206	
7.25202	 -4.308768	
7.28528	 -4.309719	
7.31855	 -4.312611	
7.35181	 -4.313311	
7.38508	 -4.312895	
7.41835	 -4.311510	
7.45161	 -4.309290	
7.48488	 -4.309538	
7.51815	 -4.311791	
7.55141	 -4.312605	
7.58468	 -4.310745	
7.61794	 -4.306860	
7.65121	 -4.303882	
7.68448	 -4.302823	
7.71774	 -4.299799	
7.75101	 -4.293938	
7.78427	 -4.289087	
7.81754	 -4.288004	
7.85081	 -4.290745	
7.88407	 -4.293629	
7.91734	 -4.293119	
7.9506	 -4.290703	
7.98387	 -4.288437	
8.01714	 -4.286804	
8.0504	 -4.286918	
8.08367	 -4.287587	
8.11694	 -4.285919	
8.1502	 -4.281687	
8.18347	 -4.276013	
8.21673	 -4.272185	
8.25	 -4.274390	
8.28327	 -4.279788	
8.31653	 -4.283037	
8.3498	 -4.284685	
8.38306	 -4.286383	
8.41633	 -4.288414	
8.4496	 -4.290099	
8.48286	 -4.287494	
8.51613	 -4.280497	
8.5494	 -4.275716	
8.58266	 -4.274983	
8.61593	 -4.274972	
8.64919	 -4.275422	
8.68246	 -4.275556	
8.71573	 -4.273381	
8.74899	 -4.271504	
8.78226	 -4.272422	
8.81552	 -4.274421	
8.84879	 -4.275969	
8.88206	 -4.276086	
8.91532	 -4.275084	
8.94859	 -4.275318	
8.98185	 -4.275521	
9.01512	 -4.273834	
9.04839	 -4.274318	
9.08165	 -4.279062	
9.11492	 -4.284371	
9.14819	 -4.287967	
9.18145	 -4.289349	
9.21472	 -4.289432	
9.24798	 -4.290788	
9.28125	 -4.291880	
9.31452	 -4.291536	
9.34778	 -4.294431	
9.38105	 -4.300461	
9.41431	 -4.304170	
9.44758	 -4.304951	
9.48085	 -4.304823	
9.51411	 -4.305842	
9.54738	 -4.309576	
9.58065	 -4.312457	
9.61391	 -4.310354	
9.64718	 -4.304202	
9.68044	 -4.296441	
9.71371	 -4.290457	
9.74698	 -4.289035	
9.78024	 -4.290668	
9.81351	 -4.294051	
9.84677	 -4.298397	
9.88004	 -4.300069	
9.91331	 -4.298872	
9.94657	 -4.298811	
9.97984	 -4.300929	
10.0131	 -4.304478	
10.0464	 -4.308452	
10.0796	 -4.310005	
10.1129	 -4.309325	
10.1462	 -4.308661	
10.1794	 -4.305914	
10.2127	 -4.301005	
10.246	 -4.298091	
10.2792	 -4.296609	
10.3125	 -4.295721	
10.3458	 -4.299183	
10.379	 -4.305911	
10.4123	 -4.310771	
10.4456	 -4.312229	
10.4788	 -4.308905	
10.5121	 -4.300235	
10.5454	 -4.291134	
10.5786	 -4.286760	
10.6119	 -4.288675	
10.6452	 -4.295851	
10.6784	 -4.304993	
10.7117	 -4.313519	
10.745	 -4.319567	
10.7782	 -4.320389	
10.8115	 -4.316054	
10.8448	 -4.309784	
10.878	 -4.305441	
10.9113	 -4.305761	
10.9446	 -4.307953	
10.9778	 -4.306914	
11.0111	 -4.302520	
11.0444	 -4.296937	
11.0776	 -4.291483	
11.1109	 -4.287308	
11.1442	 -4.284020	
11.1774	 -4.281361	
11.2107	 -4.279889	
11.244	 -4.277609	
11.2772	 -4.273733	
11.3105	 -4.271904	
11.3437	 -4.274444	
11.377	 -4.280881	
11.4103	 -4.288262	
11.4435	 -4.290248	
11.4768	 -4.285619	
11.5101	 -4.279789	
11.5433	 -4.273387	
11.5766	 -4.266146	
11.6099	 -4.264676	
11.6431	 -4.269886	
11.6764	 -4.273065	
11.7097	 -4.270821	
11.7429	 -4.266737	
11.7762	 -4.263508	
11.8095	 -4.262632	
11.8427	 -4.262605	
11.876	 -4.260741	
11.9093	 -4.259233	
11.9425	 -4.260067	
11.9758	 -4.263052	
12.0091	 -4.269722	
12.0423	 -4.275561	
12.0756	 -4.273413	
12.1089	 -4.269392	
12.1421	 -4.272620	
12.1754	 -4.279702	
12.2087	 -4.284469	
12.2419	 -4.284969	
12.2752	 -4.281854	
12.3085	 -4.280106	
12.3417	 -4.282292	
12.375	 -4.284574	
12.4083	 -4.285261	
12.4415	 -4.286768	
12.4748	 -4.290884	
12.5081	 -4.296604	
12.5413	 -4.300416	
12.5746	 -4.301911	
12.6079	 -4.305447	
12.6411	 -4.312269	
12.6744	 -4.317771	
12.7077	 -4.317458	
12.7409	 -4.312223	
12.7742	 -4.307236	
12.8075	 -4.305940	
12.8407	 -4.308521	
12.874	 -4.314147	
12.9073	 -4.319077	
12.9405	 -4.318236	
12.9738	 -4.313139	
13.0071	 -4.311014	
13.0403	 -4.315294	
13.0736	 -4.323106	
13.1069	 -4.329655	
13.1401	 -4.331605	
13.1734	 -4.329274	
13.2067	 -4.326298	
13.2399	 -4.326122	
13.2732	 -4.329116	
13.3065	 -4.331586	
13.3397	 -4.329693	
13.373	 -4.326070	
13.4062	 -4.326048	
13.4395	 -4.329480	
13.4728	 -4.332672	
13.506	 -4.332759	
13.5393	 -4.330010	
13.5726	 -4.328480	
13.6058	 -4.328542	
13.6391	 -4.324684	
13.6724	 -4.316580	
13.7056	 -4.309770	
13.7389	 -4.306351	
13.7722	 -4.306000	
13.8054	 -4.307138	
13.8387	 -4.305477	
13.872	 -4.301056	
13.9052	 -4.298103	
13.9385	 -4.297986	
13.9718	 -4.300774	
14.005	 -4.302899	
14.0383	 -4.298184	
14.0716	 -4.290689	
14.1048	 -4.289414	
14.1381	 -4.294225	
14.1714	 -4.299976	
14.2046	 -4.301608	
14.2379	 -4.296435	
14.2712	 -4.288872	
14.3044	 -4.284381	
14.3377	 -4.283077	
14.371	 -4.283165	
14.4042	 -4.280678	
14.4375	 -4.272536	
